<?xml version="1.0" encoding="UTF-8"?>
<!DOCTYPE svg PUBLIC "-//W3C//DTD SVG 1.1//EN" "http://www.w3.org/Graphics/SVG/1.1/DTD/svg11.dtd">
<!-- Creator: CorelDRAW 2020 (64-Bit) -->
<svg xmlns="http://www.w3.org/2000/svg" xml:space="preserve" width="190mm" height="155mm" version="1.1" style="shape-rendering:geometricPrecision; text-rendering:geometricPrecision; image-rendering:optimizeQuality; fill-rule:evenodd; clip-rule:evenodd"
viewBox="0 0 19000 15500"
 xmlns:xlink="http://www.w3.org/1999/xlink"
 xmlns:xodm="http://www.corel.com/coreldraw/odm/2003"
 aria-hidden="true"
 focusable="false"
 data-prefix="fas"
 data-icon="plus-circle"
 role="img">
 <defs>
  <style type="text/css">
   <![CDATA[
    .fil0 {fill:#DDDDDD;fill-rule:nonzero}
   ]]>
  </style>
 </defs>
 <g id="Capa_x0020_1">
  <metadata id="CorelCorpID_0Corel-Layer"/>
  <path class="fil0" d="M12743.82 5063.54l2942.37 -3252.58c580.03,-580.05 169.2,-1572.08 -651.28,-1572.08l-13970.98 0c-820.49,0 -1231.32,992.03 -651.28,1572.07l5310.79 5871.06 0 4533.32c0,366.05 172.41,710.59 465.19,930.39l2325.69 1744.49c606.5,454.73 1409.25,202.65 1721.81,-394.55 -1058.62,-1016.73 -1721.52,-2442.27 -1721.52,-4022.48 0,-2610.61 1804.09,-4802.27 4229.21,-5409.64z"/>
  <g id="plus-circle-solid.svg">
   <path class="fil0" d="M14096.96 5830.77c-2569.83,0 -4651.96,2096.52 -4651.96,4684.12 0,2587.6 2082.12,4684.12 4651.96,4684.12 2569.83,0 4651.95,-2096.52 4651.95,-4684.12 0,-2587.6 -2082.13,-4684.12 -4651.95,-4684.12zm2701.13 5212.97c0,124.66 -101.29,226.65 -225.1,226.65l-1725.72 0 0 1737.66c0,124.66 -101.29,226.65 -225.09,226.65l-1050.45 0c-123.8,0 -225.09,-101.99 -225.09,-226.65l0 -1737.66 -1725.72 0c-123.8,0 -225.1,-101.99 -225.1,-226.65l0 -1057.7c0,-124.66 101.29,-226.66 225.1,-226.66l1725.72 0 0 -1737.65c0,-124.66 101.29,-226.65 225.09,-226.65l1050.45 0c123.8,0 225.09,101.99 225.09,226.65l0 1737.66 1725.72 -0.01c123.8,0 225.1,102 225.1,226.66l0 1057.7z"/>
  </g>
 </g>
</svg>
